<svg fill="#fff" width="800" height="800" viewBox="0 0 1024 1024" xmlns="http://www.w3.org/2000/svg"><path d="M633.735 790.366c-34.297 27.533-78.592 43.055-125.685 43.055-46.757 0-90.77-15.31-124.985-42.503-8.855-7.037-21.738-5.564-28.776 3.291s-5.564 21.738 3.291 28.776c41.473 32.962 94.472 51.397 150.471 51.397 56.402 0 109.746-18.694 151.327-52.074 8.82-7.081 10.23-19.971 3.15-28.791s-19.971-10.23-28.791-3.15zM433.726 604.524c0 26.266-21.504 47.565-48.036 47.565s-48.046-21.299-48.046-47.565 21.514-47.565 48.046-47.565 48.036 21.299 48.036 47.565m245.509 0c0 26.266-21.504 47.565-48.036 47.565s-48.046-21.299-48.046-47.565 21.514-47.565 48.046-47.565 48.036 21.299 48.036 47.565"/><path d="M196.466 504.945C168.475 556.273 153.6 613.886 153.6 673.614c0 194.966 158.182 353.004 353.3 353.004S860.2 868.58 860.2 673.614c0-56.521-13.327-111.182-38.527-160.448-5.151-10.07-17.49-14.057-27.56-8.907s-14.057 17.49-8.907 27.56c22.264 43.526 34.033 91.799 34.033 141.795 0 172.336-139.835 312.044-312.34 312.044s-312.34-139.708-312.34-312.044c0-52.832 13.136-103.709 37.866-149.058 5.415-9.93 1.755-22.37-8.175-27.785s-22.37-1.755-27.785 8.175z"/><path d="m506.869 45.984 276.312 481.785c5.627 9.812 18.143 13.204 27.954 7.577s13.204-18.143 7.577-27.954L539.918 21.279c-16.279-28.374-49.819-28.374-66.096-.003l-281.12 490.161c-5.627 9.812-2.235 22.327 7.577 27.955s22.327 2.235 27.955-7.577L506.87 45.985z"/></svg>