<svg width="80" height="80" viewBox="0 0 16 16" xmlns="http://www.w3.org/2000/svg"><path d="M5.032 14.286c6.037 0 9.34-4.837 9.34-9.032 0-.137 0-.274-.01-.41A6.6 6.6 0 0 0 16 3.2c-.6.256-1.235.425-1.885.5a3.2 3.2 0 0 0 1.443-1.757c-.645.37-1.35.63-2.085.77a3.32 3.32 0 0 0-1.862-.958 3.4 3.4 0 0 0-2.082.334 3.22 3.22 0 0 0-1.442 1.49 3.08 3.08 0 0 0-.208 2.03 9.6 9.6 0 0 1-3.747-.963 9.3 9.3 0 0 1-3.018-2.354 3.1 3.1 0 0 0-.36 2.314c.189.787.68 1.475 1.376 1.924a3.34 3.34 0 0 1-1.49-.398v.04c0 .734.263 1.444.743 2.01a3.3 3.3 0 0 0 1.89 1.102c-.483.128-.99.146-1.482.055a3.2 3.2 0 0 0 1.168 1.577 3.36 3.36 0 0 0 1.9.627A6.73 6.73 0 0 1 0 12.86a9.53 9.53 0 0 0 5.032 1.423" fill="#fff"/></svg>