<svg width="24" height="24" viewBox="0 0 24 24" fill="none" xmlns="http://www.w3.org/2000/svg">
<path d="M23.8641 21.6745C22.1084 18.6394 19.403 16.463 16.2456 15.4313C17.8074 14.5016 19.0208 13.0849 19.6995 11.3988C20.3782 9.71274 20.4846 7.85049 20.0025 6.09805C19.5203 4.34561 18.4763 2.79989 17.0306 1.69826C15.585 0.596628 13.8177 0 12.0001 0C10.1826 0 8.41527 0.596628 6.96962 1.69826C5.52397 2.79989 4.47991 4.34561 3.99778 6.09805C3.51564 7.85049 3.62209 9.71274 4.30077 11.3988C4.97945 13.0849 6.19284 14.5016 7.7546 15.4313C4.59727 16.4619 1.8918 18.6382 0.136187 21.6745C0.0718051 21.7795 0.0291014 21.8963 0.0105949 22.0181C-0.00791162 22.1398 -0.00184596 22.264 0.028434 22.3834C0.0587139 22.5028 0.112595 22.6149 0.186897 22.7131C0.2612 22.8113 0.354419 22.8936 0.461056 22.9552C0.567692 23.0168 0.685585 23.0564 0.807778 23.0717C0.929972 23.087 1.05399 23.0777 1.17252 23.0442C1.29105 23.0108 1.40168 22.954 1.4979 22.8772C1.59411 22.8003 1.67396 22.7049 1.73272 22.5967C3.90447 18.8434 7.74308 16.6025 12.0001 16.6025C16.2572 16.6025 20.0958 18.8434 22.2675 22.5967C22.3263 22.7049 22.4061 22.8003 22.5024 22.8772C22.5986 22.954 22.7092 23.0108 22.8277 23.0442C22.9463 23.0777 23.0703 23.087 23.1925 23.0717C23.3147 23.0564 23.4326 23.0168 23.5392 22.9552C23.6458 22.8936 23.739 22.8113 23.8133 22.7131C23.8877 22.6149 23.9415 22.5028 23.9718 22.3834C24.0021 22.264 24.0082 22.1398 23.9896 22.0181C23.9711 21.8963 23.9284 21.7795 23.8641 21.6745ZM5.54481 8.30282C5.54481 7.02608 5.92341 5.77801 6.63273 4.71644C7.34205 3.65487 8.35023 2.82748 9.52978 2.33889C10.7093 1.8503 12.0073 1.72247 13.2595 1.97155C14.5117 2.22063 15.6619 2.83543 16.5647 3.73823C17.4675 4.64102 18.0823 5.79124 18.3314 7.04345C18.5805 8.29566 18.4526 9.59361 17.9641 10.7732C17.4755 11.9527 16.6481 12.9609 15.5865 13.6702C14.5249 14.3795 13.2769 14.7581 12.0001 14.7581C10.2886 14.7563 8.64776 14.0756 7.43755 12.8654C6.22734 11.6552 5.54664 10.0143 5.54481 8.30282Z" fill="#333333"/>
</svg>
