<svg width="22" height="22" viewBox="0 0 22 22" fill="none" xmlns="http://www.w3.org/2000/svg"><path d="M16.79 16.79a2.105 2.105 0 1 1 0 4.21 2.105 2.105 0 0 1 0-4.21Zm0 1.052a1.053 1.053 0 1 0 0 2.105 1.053 1.053 0 0 0 0-2.105ZM7.316 16.79a2.105 2.105 0 1 1 0 4.21 2.105 2.105 0 0 1 0-4.21Zm0 1.052a1.053 1.053 0 1 0 0 2.105 1.053 1.053 0 0 0 0-2.105ZM18.895 4.158H4.442l2.684 6.316h8.61c.348 0 .654-.169.843-.421l3.158-4.21a1.053 1.053 0 0 0-.842-1.684Zm-3.158 7.368H7.179l-.81 1.642-.106.464a1.053 1.053 0 0 0 1.053 1.052h11.579v1.053H7.315a2.105 2.105 0 0 1-1.841-3.126l.758-1.548-3.821-9.01H1V1h2.105L4 3.105h14.895A2.105 2.105 0 0 1 21 5.211c0 .526-.179.968-.474 1.326l-3.063 4.095a2.11 2.11 0 0 1-1.726.894Z" fill="#fff" stroke="#fff" stroke-width=".4"/></svg>