<svg fill="#fff" xmlns="http://www.w3.org/2000/svg" viewBox="0 0 296.438 296.438" xml:space="preserve"><path d="M223.847 150.669c0-62.06-74.778-150.308-74.778-150.308S74.292 88.61 74.292 150.669c0 41.299 33.479 74.776 74.776 74.776s74.779-33.477 74.779-74.776m-199.18 68.898c-14.039 14.04-14.035 36.81.002 50.846 21.085 21.087 76.508 25.663 76.508 25.663s-4.577-55.422-25.662-76.509c-14.037-14.035-36.807-14.04-50.848 0m14.972-81.013c-9.065-9.065-23.771-9.067-32.839 0s-9.065 23.773 0 32.838c13.618 13.618 49.413 16.574 49.413 16.574s-2.956-35.796-16.574-49.412m181.284 81.013c-21.085 21.087-25.662 76.509-25.662 76.509s55.423-4.576 76.508-25.663c14.037-14.035 14.041-36.806.002-50.846-14.042-14.04-36.811-14.035-50.848 0m68.715-81.013c-9.068-9.067-23.773-9.065-32.839 0-13.618 13.616-16.574 49.412-16.574 49.412s35.795-2.956 49.413-16.574c9.065-9.065 9.067-23.77 0-32.838"/></svg>