<svg width="80" height="80" viewBox="0 0 52 51" fill="none" xmlns="http://www.w3.org/2000/svg"><path d="M39.201 50.5c-3.52-.113-6.966-1.28-10.263-2.907C17.373 41.89 8.815 33.232 3.385 21.56 1.864 18.297.784 14.898 1.037 11.213c.131-1.925.837-3.601 2.178-4.987 1.313-1.359 2.632-2.716 4.01-4.008 2.446-2.295 5.122-2.295 7.55.028a207 207 0 0 1 6.093 6.072c2.45 2.546 2.407 5.066-.063 7.623a70 70 0 0 1-3.068 3.015c-.454.416-.46.74-.196 1.25 1.874 3.609 4.509 6.628 7.565 9.244 1.917 1.64 4.11 2.96 6.176 4.43.494.35.841.233 1.253-.192 1.154-1.193 2.319-2.386 3.56-3.488 2.093-1.86 4.67-1.831 6.693.103a228 228 0 0 1 6.65 6.623c2.028 2.11 2.087 4.745.144 6.93-1.405 1.579-2.903 3.084-4.437 4.542-1.584 1.505-3.562 2.098-5.944 2.102ZM3.528 11.984c.114 3.37 1.012 6.02 2.192 8.563 4.753 10.244 12.131 18.09 22.008 23.595 3.2 1.783 6.538 3.25 10.227 3.736 2.244.297 4.29-.007 5.935-1.75 1.096-1.162 2.233-2.284 3.35-3.424 1.564-1.595 1.576-2.79.012-4.359a1111 1111 0 0 0-5.895-5.858c-1.415-1.397-2.54-1.415-3.97-.035-1.244 1.199-2.447 2.44-3.682 3.648-.947.928-1.758 1.078-2.913.412-1.607-.925-3.26-1.811-4.726-2.93-4.602-3.517-8.572-7.612-11.116-12.902-.672-1.4-.517-2.067.584-3.131 1.194-1.156 2.405-2.297 3.556-3.494 1.349-1.4 1.34-2.518-.016-3.896a482 482 0 0 0-6.09-6.075c-1.388-1.362-2.607-1.362-4-.02C7.787 5.219 6.64 6.424 5.44 7.575c-1.413 1.357-1.993 3.01-1.913 4.41Z" fill="#fff" stroke="#fff" stroke-width=".758"/></svg>