<svg width="24" height="24" viewBox="0 0 24 24" fill="none" xmlns="http://www.w3.org/2000/svg">
<path d="M17.3906 18.9553L17.2964 18.861L17.1917 18.9435C15.8734 19.9825 14.3257 20.6911 12.6779 21.0103C11.03 21.3294 9.32968 21.2499 7.71879 20.7783C6.10791 20.3067 4.63316 19.4567 3.41758 18.2992C2.20201 17.1418 1.28086 15.7104 0.730987 14.1245C0.181114 12.5386 0.0184629 10.8443 0.256604 9.18274C0.494745 7.52122 1.12677 5.94074 2.09996 4.57316C3.07314 3.20558 4.35926 2.09056 5.85101 1.32112C7.34276 0.551684 8.99689 0.150143 10.6754 0.15C12.6518 0.149867 14.5883 0.706161 16.2633 1.75522C17.9383 2.80427 19.2841 4.30371 20.1467 6.08192C21.0094 7.86013 21.3539 9.84528 21.141 11.8102C20.9281 13.7751 20.1663 15.6403 18.9428 17.1925L18.8602 17.2972L18.9545 17.3914L23.5396 21.9765C23.5399 21.9768 23.5402 21.9771 23.5405 21.9774C23.7414 22.1859 23.8526 22.4649 23.8501 22.7545C23.8476 23.0445 23.7312 23.3219 23.5262 23.527C23.3211 23.732 23.0437 23.8483 22.7537 23.8509C22.4641 23.8534 22.1852 23.7422 21.9767 23.5413C21.9764 23.541 21.976 23.5407 21.9757 23.5404L17.3906 18.9553ZM4.7964 4.79719C3.2372 6.35639 2.36125 8.47112 2.36125 10.6762C2.36125 12.8812 3.2372 14.9959 4.7964 16.5551C6.3556 18.1143 8.47033 18.9903 10.6754 18.9903C12.8804 18.9903 14.9952 18.1143 16.5544 16.5551C18.1136 14.9959 18.9895 12.8812 18.9895 10.6762C18.9895 8.47112 18.1136 6.35639 16.5544 4.79719C14.9952 3.23799 12.8804 2.36204 10.6754 2.36204C8.47033 2.36204 6.3556 3.23799 4.7964 4.79719Z" fill="#333333" stroke="white" stroke-width="0.3"/>
</svg>
